<mxfile host="app.diagrams.net" agent="Mozilla/5.0 (Macintosh; Intel Mac OS X 10_15_7) AppleWebKit/605.1.15 (KHTML, like Gecko) Version/16.6 Safari/605.1.15" version="27.0.9">
  <diagram name="Pagina-1" id="yW3qTXIOuPSMdX0DaIOZ">
    <mxGraphModel dx="1818" dy="860" grid="1" gridSize="10" guides="1" tooltips="1" connect="1" arrows="1" fold="1" page="1" pageScale="1" pageWidth="827" pageHeight="1169" math="0" shadow="0">
      <root>
        <mxCell id="0" />
        <mxCell id="1" parent="0" />
        <mxCell id="oN61qzBHZfbrCgZVW6HC-45" style="edgeStyle=orthogonalEdgeStyle;rounded=0;orthogonalLoop=1;jettySize=auto;html=1;fontSize=12;startSize=8;endSize=8;" edge="1" parent="1" source="oN61qzBHZfbrCgZVW6HC-42" target="oN61qzBHZfbrCgZVW6HC-43">
          <mxGeometry relative="1" as="geometry">
            <Array as="points">
              <mxPoint x="80" y="510" />
              <mxPoint x="80" y="510" />
            </Array>
          </mxGeometry>
        </mxCell>
        <mxCell id="oN61qzBHZfbrCgZVW6HC-48" value="getLanguagesBySimilarity(language)" style="edgeLabel;html=1;align=center;verticalAlign=middle;resizable=0;points=[];fontSize=12;" vertex="1" connectable="0" parent="oN61qzBHZfbrCgZVW6HC-45">
          <mxGeometry x="0.1274" y="1" relative="1" as="geometry">
            <mxPoint x="-1" y="-4" as="offset" />
          </mxGeometry>
        </mxCell>
        <mxCell id="oN61qzBHZfbrCgZVW6HC-42" value="" style="verticalLabelPosition=bottom;verticalAlign=top;html=1;shape=card;whiteSpace=wrap;size=20;arcSize=12;fillColor=#fff2cc;strokeColor=#d6b656;" vertex="1" parent="1">
          <mxGeometry x="20" y="390" width="320" height="100" as="geometry" />
        </mxCell>
        <mxCell id="oN61qzBHZfbrCgZVW6HC-8" style="edgeStyle=none;curved=1;rounded=0;orthogonalLoop=1;jettySize=auto;html=1;fontSize=12;startSize=8;endSize=8;entryX=0.5;entryY=0;entryDx=0;entryDy=0;" edge="1" parent="1" source="oN61qzBHZfbrCgZVW6HC-7" target="oN61qzBHZfbrCgZVW6HC-1">
          <mxGeometry relative="1" as="geometry">
            <mxPoint x="390" y="110" as="targetPoint" />
          </mxGeometry>
        </mxCell>
        <mxCell id="oN61qzBHZfbrCgZVW6HC-9" value="getParadigms" style="edgeLabel;html=1;align=center;verticalAlign=middle;resizable=0;points=[];fontSize=12;" vertex="1" connectable="0" parent="oN61qzBHZfbrCgZVW6HC-8">
          <mxGeometry x="-0.0222" y="-4" relative="1" as="geometry">
            <mxPoint as="offset" />
          </mxGeometry>
        </mxCell>
        <mxCell id="oN61qzBHZfbrCgZVW6HC-11" style="edgeStyle=none;curved=1;rounded=0;orthogonalLoop=1;jettySize=auto;html=1;fontSize=12;startSize=8;endSize=8;" edge="1" parent="1" source="oN61qzBHZfbrCgZVW6HC-1" target="oN61qzBHZfbrCgZVW6HC-10">
          <mxGeometry relative="1" as="geometry" />
        </mxCell>
        <mxCell id="oN61qzBHZfbrCgZVW6HC-12" value="getLanguage(paradigm)" style="edgeLabel;html=1;align=center;verticalAlign=middle;resizable=0;points=[];fontSize=12;" vertex="1" connectable="0" parent="oN61qzBHZfbrCgZVW6HC-11">
          <mxGeometry x="0.1472" y="-2" relative="1" as="geometry">
            <mxPoint x="-10" y="-2" as="offset" />
          </mxGeometry>
        </mxCell>
        <mxCell id="oN61qzBHZfbrCgZVW6HC-1" value="Lista di paradigmi" style="shape=parallelogram;html=1;strokeWidth=2;perimeter=parallelogramPerimeter;whiteSpace=wrap;rounded=1;arcSize=12;size=0.23;fillColor=#d5e8d4;strokeColor=#82b366;" vertex="1" parent="1">
          <mxGeometry x="240" y="190" width="160" height="60" as="geometry" />
        </mxCell>
        <mxCell id="oN61qzBHZfbrCgZVW6HC-3" style="edgeStyle=none;curved=1;rounded=0;orthogonalLoop=1;jettySize=auto;html=1;entryX=0;entryY=0.5;entryDx=0;entryDy=0;fontSize=12;startSize=8;endSize=8;" edge="1" parent="1" source="oN61qzBHZfbrCgZVW6HC-2" target="oN61qzBHZfbrCgZVW6HC-1">
          <mxGeometry relative="1" as="geometry" />
        </mxCell>
        <mxCell id="oN61qzBHZfbrCgZVW6HC-5" value="chooseParadigm" style="edgeLabel;html=1;align=center;verticalAlign=middle;resizable=0;points=[];fontSize=12;" vertex="1" connectable="0" parent="oN61qzBHZfbrCgZVW6HC-3">
          <mxGeometry x="-0.3333" y="1" relative="1" as="geometry">
            <mxPoint x="19" y="1" as="offset" />
          </mxGeometry>
        </mxCell>
        <mxCell id="oN61qzBHZfbrCgZVW6HC-31" style="edgeStyle=elbowEdgeStyle;rounded=0;orthogonalLoop=1;jettySize=auto;html=1;fontSize=12;startSize=8;endSize=8;" edge="1" parent="1" source="oN61qzBHZfbrCgZVW6HC-2" target="oN61qzBHZfbrCgZVW6HC-33">
          <mxGeometry relative="1" as="geometry">
            <mxPoint x="560" y="470" as="targetPoint" />
            <Array as="points">
              <mxPoint x="80" y="350" />
            </Array>
          </mxGeometry>
        </mxCell>
        <mxCell id="oN61qzBHZfbrCgZVW6HC-32" value="getLanguage(name)" style="edgeLabel;html=1;align=center;verticalAlign=middle;resizable=0;points=[];fontSize=12;" vertex="1" connectable="0" parent="oN61qzBHZfbrCgZVW6HC-31">
          <mxGeometry x="0.6565" y="2" relative="1" as="geometry">
            <mxPoint x="18" y="-62" as="offset" />
          </mxGeometry>
        </mxCell>
        <mxCell id="oN61qzBHZfbrCgZVW6HC-37" style="edgeStyle=orthogonalEdgeStyle;rounded=0;orthogonalLoop=1;jettySize=auto;html=1;fontSize=12;startSize=8;endSize=8;dashed=1;exitX=0.5;exitY=1;exitDx=0;exitDy=0;exitPerimeter=0;" edge="1" parent="1" source="oN61qzBHZfbrCgZVW6HC-2" target="oN61qzBHZfbrCgZVW6HC-35">
          <mxGeometry relative="1" as="geometry">
            <Array as="points">
              <mxPoint x="80" y="290" />
              <mxPoint x="275" y="290" />
            </Array>
          </mxGeometry>
        </mxCell>
        <mxCell id="oN61qzBHZfbrCgZVW6HC-40" value="getCountOfProgramm" style="edgeLabel;html=1;align=center;verticalAlign=middle;resizable=0;points=[];fontSize=12;" vertex="1" connectable="0" parent="oN61qzBHZfbrCgZVW6HC-37">
          <mxGeometry x="-0.5827" y="-1" relative="1" as="geometry">
            <mxPoint x="40" y="-1" as="offset" />
          </mxGeometry>
        </mxCell>
        <mxCell id="oN61qzBHZfbrCgZVW6HC-2" value="" style="strokeWidth=2;html=1;shape=mxgraph.flowchart.start_2;whiteSpace=wrap;fillColor=#f5f5f5;fontColor=#333333;strokeColor=#666666;" vertex="1" parent="1">
          <mxGeometry x="30" y="170" width="100" height="100" as="geometry" />
        </mxCell>
        <mxCell id="oN61qzBHZfbrCgZVW6HC-7" value="" style="strokeWidth=2;html=1;shape=mxgraph.flowchart.database;whiteSpace=wrap;fillColor=#dae8fc;strokeColor=#6c8ebf;" vertex="1" parent="1">
          <mxGeometry x="290" y="40" width="60" height="60" as="geometry" />
        </mxCell>
        <mxCell id="oN61qzBHZfbrCgZVW6HC-14" style="edgeStyle=none;curved=1;rounded=0;orthogonalLoop=1;jettySize=auto;html=1;fontSize=12;startSize=8;endSize=8;" edge="1" parent="1" source="oN61qzBHZfbrCgZVW6HC-10" target="oN61qzBHZfbrCgZVW6HC-13">
          <mxGeometry relative="1" as="geometry" />
        </mxCell>
        <mxCell id="oN61qzBHZfbrCgZVW6HC-10" value="" style="strokeWidth=2;html=1;shape=mxgraph.flowchart.database;whiteSpace=wrap;fillColor=#dae8fc;strokeColor=#6c8ebf;" vertex="1" parent="1">
          <mxGeometry x="550" y="190" width="60" height="60" as="geometry" />
        </mxCell>
        <mxCell id="oN61qzBHZfbrCgZVW6HC-17" style="edgeStyle=none;curved=1;rounded=0;orthogonalLoop=1;jettySize=auto;html=1;fontSize=12;startSize=8;endSize=8;" edge="1" parent="1" source="oN61qzBHZfbrCgZVW6HC-13" target="oN61qzBHZfbrCgZVW6HC-24">
          <mxGeometry relative="1" as="geometry">
            <mxPoint x="725" y="280" as="targetPoint" />
          </mxGeometry>
        </mxCell>
        <mxCell id="oN61qzBHZfbrCgZVW6HC-21" value="getLanguage" style="edgeLabel;html=1;align=center;verticalAlign=middle;resizable=0;points=[];fontSize=12;" vertex="1" connectable="0" parent="oN61qzBHZfbrCgZVW6HC-17">
          <mxGeometry x="-0.3643" y="-1" relative="1" as="geometry">
            <mxPoint as="offset" />
          </mxGeometry>
        </mxCell>
        <mxCell id="oN61qzBHZfbrCgZVW6HC-13" value="Linguaggi con il dato paradigma" style="shape=parallelogram;html=1;strokeWidth=2;perimeter=parallelogramPerimeter;whiteSpace=wrap;rounded=1;arcSize=12;size=0.23;fillColor=#d5e8d4;strokeColor=#82b366;" vertex="1" parent="1">
          <mxGeometry x="640" y="190" width="170" height="60" as="geometry" />
        </mxCell>
        <mxCell id="oN61qzBHZfbrCgZVW6HC-22" style="edgeStyle=none;curved=1;rounded=0;orthogonalLoop=1;jettySize=auto;html=1;fontSize=12;startSize=8;endSize=8;" edge="1" parent="1" source="oN61qzBHZfbrCgZVW6HC-24" target="oN61qzBHZfbrCgZVW6HC-23">
          <mxGeometry relative="1" as="geometry">
            <mxPoint x="725" y="380" as="targetPoint" />
            <mxPoint x="725" y="359.9999999999999" as="sourcePoint" />
          </mxGeometry>
        </mxCell>
        <mxCell id="oN61qzBHZfbrCgZVW6HC-23" value="Linguaggio&lt;div&gt;&amp;nbsp;+ external data&lt;/div&gt;" style="shape=parallelogram;html=1;strokeWidth=2;perimeter=parallelogramPerimeter;whiteSpace=wrap;rounded=1;arcSize=12;size=0.23;fillColor=#d5e8d4;strokeColor=#82b366;" vertex="1" parent="1">
          <mxGeometry x="650" y="430" width="145" height="60" as="geometry" />
        </mxCell>
        <mxCell id="oN61qzBHZfbrCgZVW6HC-24" value="" style="rounded=1;whiteSpace=wrap;html=1;absoluteArcSize=1;arcSize=14;strokeWidth=2;fillColor=#dae8fc;strokeColor=#6c8ebf;" vertex="1" parent="1">
          <mxGeometry x="587.5" y="290" width="270" height="100" as="geometry" />
        </mxCell>
        <mxCell id="oN61qzBHZfbrCgZVW6HC-25" value="" style="strokeWidth=2;html=1;shape=mxgraph.flowchart.database;whiteSpace=wrap;fillColor=#dae8fc;strokeColor=#6c8ebf;" vertex="1" parent="1">
          <mxGeometry x="786" y="310" width="60" height="60" as="geometry" />
        </mxCell>
        <mxCell id="oN61qzBHZfbrCgZVW6HC-26" style="edgeStyle=none;curved=1;rounded=0;orthogonalLoop=1;jettySize=auto;html=1;fontSize=12;startSize=8;endSize=8;" edge="1" parent="1" source="oN61qzBHZfbrCgZVW6HC-28" target="oN61qzBHZfbrCgZVW6HC-25">
          <mxGeometry relative="1" as="geometry" />
        </mxCell>
        <mxCell id="oN61qzBHZfbrCgZVW6HC-27" value="getApplications" style="edgeLabel;html=1;align=center;verticalAlign=middle;resizable=0;points=[];fontSize=12;" vertex="1" connectable="0" parent="oN61qzBHZfbrCgZVW6HC-26">
          <mxGeometry x="-0.1736" relative="1" as="geometry">
            <mxPoint as="offset" />
          </mxGeometry>
        </mxCell>
        <mxCell id="oN61qzBHZfbrCgZVW6HC-28" value="External" style="strokeWidth=2;html=1;shape=mxgraph.flowchart.database;whiteSpace=wrap;fillColor=#e1d5e7;strokeColor=#9673a6;" vertex="1" parent="1">
          <mxGeometry x="599" y="310" width="60" height="60" as="geometry" />
        </mxCell>
        <mxCell id="oN61qzBHZfbrCgZVW6HC-33" value="Linguaggio" style="shape=parallelogram;html=1;strokeWidth=2;perimeter=parallelogramPerimeter;whiteSpace=wrap;rounded=1;arcSize=12;size=0.23;fillColor=#fff2cc;strokeColor=#d6b656;" vertex="1" parent="1">
          <mxGeometry x="30" y="410" width="100" height="60" as="geometry" />
        </mxCell>
        <mxCell id="oN61qzBHZfbrCgZVW6HC-35" value="Conta di applicazioni&amp;nbsp;&lt;div&gt;usate per il linguaggio&lt;/div&gt;" style="shape=parallelogram;html=1;strokeWidth=2;perimeter=parallelogramPerimeter;whiteSpace=wrap;rounded=1;arcSize=12;size=0.23;fillColor=#fff2cc;strokeColor=#d6b656;" vertex="1" parent="1">
          <mxGeometry x="110" y="410" width="220" height="60" as="geometry" />
        </mxCell>
        <mxCell id="oN61qzBHZfbrCgZVW6HC-38" value="" style="strokeWidth=2;html=1;shape=mxgraph.flowchart.database;whiteSpace=wrap;fillColor=#dae8fc;strokeColor=#6c8ebf;" vertex="1" parent="1">
          <mxGeometry x="240" y="270" width="60" height="60" as="geometry" />
        </mxCell>
        <mxCell id="oN61qzBHZfbrCgZVW6HC-47" style="edgeStyle=none;curved=1;rounded=0;orthogonalLoop=1;jettySize=auto;html=1;fontSize=12;startSize=8;endSize=8;" edge="1" parent="1" source="oN61qzBHZfbrCgZVW6HC-43" target="oN61qzBHZfbrCgZVW6HC-46">
          <mxGeometry relative="1" as="geometry" />
        </mxCell>
        <mxCell id="oN61qzBHZfbrCgZVW6HC-43" value="" style="strokeWidth=2;html=1;shape=mxgraph.flowchart.database;whiteSpace=wrap;fillColor=#dae8fc;strokeColor=#6c8ebf;" vertex="1" parent="1">
          <mxGeometry x="50" y="550" width="60" height="60" as="geometry" />
        </mxCell>
        <mxCell id="oN61qzBHZfbrCgZVW6HC-46" value="Linguaggi&amp;nbsp;&lt;div&gt;simili&lt;/div&gt;" style="shape=parallelogram;html=1;strokeWidth=2;perimeter=parallelogramPerimeter;whiteSpace=wrap;rounded=1;arcSize=12;size=0.23;fillColor=#fff2cc;strokeColor=#d6b656;" vertex="1" parent="1">
          <mxGeometry x="30" y="650" width="100" height="60" as="geometry" />
        </mxCell>
        <mxCell id="oN61qzBHZfbrCgZVW6HC-49" style="edgeStyle=orthogonalEdgeStyle;rounded=0;orthogonalLoop=1;jettySize=auto;html=1;fontSize=12;startSize=8;endSize=8;" edge="1" parent="1" target="oN61qzBHZfbrCgZVW6HC-55" source="oN61qzBHZfbrCgZVW6HC-42">
          <mxGeometry relative="1" as="geometry">
            <mxPoint x="289.1334782608697" y="490" as="sourcePoint" />
            <Array as="points">
              <mxPoint x="301" y="510" />
              <mxPoint x="301" y="510" />
            </Array>
            <mxPoint x="289.1334782608697" y="570" as="targetPoint" />
          </mxGeometry>
        </mxCell>
        <mxCell id="oN61qzBHZfbrCgZVW6HC-50" value="getBasedLanguages" style="edgeLabel;html=1;align=center;verticalAlign=middle;resizable=0;points=[];fontSize=12;" vertex="1" connectable="0" parent="oN61qzBHZfbrCgZVW6HC-49">
          <mxGeometry x="0.1274" y="1" relative="1" as="geometry">
            <mxPoint x="10" y="-15" as="offset" />
          </mxGeometry>
        </mxCell>
        <mxCell id="oN61qzBHZfbrCgZVW6HC-53" value="Linguaggi&amp;nbsp;&lt;div&gt;correlati&lt;/div&gt;" style="shape=parallelogram;html=1;strokeWidth=2;perimeter=parallelogramPerimeter;whiteSpace=wrap;rounded=1;arcSize=12;size=0.23;fillColor=#fff2cc;strokeColor=#d6b656;" vertex="1" parent="1">
          <mxGeometry x="245.37" y="720" width="110.75" height="60" as="geometry" />
        </mxCell>
        <mxCell id="oN61qzBHZfbrCgZVW6HC-60" style="edgeStyle=none;curved=1;rounded=0;orthogonalLoop=1;jettySize=auto;html=1;fontSize=12;startSize=8;endSize=8;" edge="1" parent="1" source="oN61qzBHZfbrCgZVW6HC-55" target="oN61qzBHZfbrCgZVW6HC-53">
          <mxGeometry relative="1" as="geometry" />
        </mxCell>
        <mxCell id="oN61qzBHZfbrCgZVW6HC-55" value="" style="rounded=1;whiteSpace=wrap;html=1;absoluteArcSize=1;arcSize=14;strokeWidth=2;fillColor=#dae8fc;strokeColor=#6c8ebf;" vertex="1" parent="1">
          <mxGeometry x="201.5" y="570" width="198.5" height="100" as="geometry" />
        </mxCell>
        <mxCell id="oN61qzBHZfbrCgZVW6HC-56" value="" style="strokeWidth=2;html=1;shape=mxgraph.flowchart.database;whiteSpace=wrap;fillColor=#dae8fc;strokeColor=#6c8ebf;" vertex="1" parent="1">
          <mxGeometry x="330" y="600" width="60" height="60" as="geometry" />
        </mxCell>
        <mxCell id="oN61qzBHZfbrCgZVW6HC-59" style="edgeStyle=none;curved=1;rounded=0;orthogonalLoop=1;jettySize=auto;html=1;fontSize=12;startSize=8;endSize=8;" edge="1" parent="1" source="oN61qzBHZfbrCgZVW6HC-58" target="oN61qzBHZfbrCgZVW6HC-56">
          <mxGeometry relative="1" as="geometry" />
        </mxCell>
        <mxCell id="oN61qzBHZfbrCgZVW6HC-61" value="getInfluenced" style="edgeLabel;html=1;align=center;verticalAlign=middle;resizable=0;points=[];fontSize=12;" vertex="1" connectable="0" parent="oN61qzBHZfbrCgZVW6HC-59">
          <mxGeometry x="-0.5916" relative="1" as="geometry">
            <mxPoint x="38" y="-17" as="offset" />
          </mxGeometry>
        </mxCell>
        <mxCell id="oN61qzBHZfbrCgZVW6HC-58" value="External" style="strokeWidth=2;html=1;shape=mxgraph.flowchart.database;whiteSpace=wrap;fillColor=#e1d5e7;strokeColor=#9673a6;" vertex="1" parent="1">
          <mxGeometry x="210" y="580" width="60" height="60" as="geometry" />
        </mxCell>
      </root>
    </mxGraphModel>
  </diagram>
</mxfile>
